<?xml version="1.0" encoding="UTF-8"?>
<svg version="1.1" xmlns="http://www.w3.org/2000/svg" width="927" height="170">
<path d="M0 0 C0.99 0 1.98 0 3 0 C3 43.89 3 87.78 3 133 C2.01 133 1.02 133 0 133 C0 125.41 0 117.82 0 110 C-5.61 110 -11.22 110 -17 110 C-17.01458252 108.76958984 -17.02916504 107.53917969 -17.04418945 106.27148438 C-17.10243721 101.67907565 -17.17966768 97.08714373 -17.26245117 92.49511719 C-17.2955764 90.5127744 -17.32364644 88.53034011 -17.34643555 86.54785156 C-17.38021054 83.68775671 -17.43253688 80.82849108 -17.48828125 77.96875 C-17.49467117 77.09134155 -17.5010611 76.21393311 -17.50764465 75.30993652 C-17.64260387 69.58088189 -18.60764488 65.22881553 -21 60 C-24.75826671 57.08715116 -29.45016493 57.46376944 -34 58 C-37.63467079 59.62400184 -38.77408696 60.66113044 -41 64 C-42.35899762 68.70742741 -42.22310706 73.59448193 -42.31640625 78.45703125 C-42.33718735 79.35999435 -42.35796844 80.26295746 -42.37937927 81.19328308 C-42.4445528 84.06628097 -42.50360955 86.93936714 -42.5625 89.8125 C-42.60571586 91.76498294 -42.64933112 93.71745708 -42.69335938 95.66992188 C-42.80094968 100.44652556 -42.90026229 105.2232001 -43 110 C-48.94 110 -54.88 110 -61 110 C-61.0093457 108.6682373 -61.01869141 107.33647461 -61.02832031 105.96435547 C-61.06827472 101.01040537 -61.13404934 96.0570727 -61.20751953 91.10351562 C-61.23569744 88.96199491 -61.25692775 86.82037082 -61.27099609 84.67871094 C-61.29246925 81.59516593 -61.33914317 78.51285982 -61.390625 75.4296875 C-61.39185364 74.47633514 -61.39308228 73.52298279 -61.39434814 72.54074097 C-61.52112655 66.75121514 -62.16873461 63.42558663 -66 59 C-69.72712158 57.13643921 -73.9420732 57.43450025 -78 58 C-81.62531608 59.8741654 -83.69121639 62.07364917 -85 66 C-85.11349848 67.45706917 -85.17601475 68.91844959 -85.20532227 70.37963867 C-85.22526749 71.26032516 -85.24521271 72.14101166 -85.26576233 73.04838562 C-85.29083107 74.46882927 -85.29083107 74.46882927 -85.31640625 75.91796875 C-85.33718735 76.89034988 -85.35796844 77.86273102 -85.37937927 78.86457825 C-85.44478748 81.97214665 -85.50371929 85.07979985 -85.5625 88.1875 C-85.60569351 90.29362858 -85.64930807 92.39974856 -85.69335938 94.50585938 C-85.80045999 99.67048591 -85.90175219 104.83519778 -86 110 C-91.94 110 -97.88 110 -104 110 C-104.09930568 103.18648469 -104.17167586 96.37339609 -104.21972656 89.55932617 C-104.23977 87.24414729 -104.26701225 84.92901858 -104.30175781 82.61401367 C-104.35059542 79.27510149 -104.37304225 75.93686201 -104.390625 72.59765625 C-104.41127014 71.57229263 -104.43191528 70.54692902 -104.45318604 69.49049377 C-104.45616276 59.83156653 -101.47934735 52.80416459 -94.9375 45.7265625 C-86.93618962 38.59636252 -77.20877895 38.36892282 -67.02441406 38.81201172 C-60.6426395 39.40462706 -55.66008364 42.79089219 -51 47 C-50.154375 46.236875 -49.30875 45.47375 -48.4375 44.6875 C-42.89125514 39.6823522 -36.8927158 38.46147707 -29.6875 38.5625 C-28.94274414 38.56862305 -28.19798828 38.57474609 -27.43066406 38.58105469 C-19.28203203 38.81124203 -11.8165243 41.01728929 -6 47 C-4.35 49.64 -2.7 52.28 -1 55 C-0.67 36.85 -0.34 18.7 0 0 Z " fill="#666666" transform="translate(310,37)"/>
<path d="M0 0 C0.99 0 1.98 0 3 0 C3.33 8.91 3.66 17.82 4 27 C5.65 24.36 7.3 21.72 9 19 C14.59906113 13.54828259 19.79748378 11.82148825 27.4375 11.8125 C29.273125 11.874375 31.10875 11.93625 33 12 C33 17.61 33 23.22 33 29 C30.89625 29.4640625 30.89625 29.4640625 28.75 29.9375 C25.67760364 30.92453757 24.33722777 31.50079669 22.51171875 34.203125 C21.55310964 36.42012643 20.76380801 38.70857597 20 41 C24.29 41 28.58 41 33 41 C33.495 47.435 33.495 47.435 34 54 C34.61875 53.13375 35.2375 52.2675 35.875 51.375 C41.60016576 44.55008488 49.3608199 41.25898464 58 40 C61.36258499 39.79274881 64.69547076 39.80762961 68.0625 39.875 C71.011875 39.91625 73.96125 39.9575 77 40 C77 45.94 77 51.88 77 58 C69.4375 58.3125 69.4375 58.3125 67.09936523 58.38793945 C61.1517233 58.69945734 56.35501136 60.02688237 51.6875 63.9375 C48.03767852 68.39839292 47.63899957 71.94370071 47.73046875 77.58984375 C48.07148388 80.63921089 49.17329704 82.56439605 51 85 C51 85.66 51 86.32 51 87 C56.98191292 90.34987124 63.16909728 91.26561579 69.9375 91.625 C72.268125 91.74875 74.59875 91.8725 77 92 C77 97.94 77 103.88 77 110 C48.75787531 110.60089627 48.75787531 110.60089627 38 101 C30.99061549 93.34967955 27.28047726 83.59493561 27.69921875 73.1484375 C28.45469805 67.7521568 29.55202024 61.89595952 32 57 C28.04 57 24.08 57 20 57 C20 74.49 20 91.98 20 110 C14.39 110 8.78 110 3 110 C3 117.59 3 125.18 3 133 C2.01 133 1.02 133 0 133 C0 89.11 0 45.22 0 0 Z " fill="#666666" transform="translate(93,37)"/>
<path d="M0 0 C0 5.61 0 11.22 0 17 C-3.80859375 17.9765625 -3.80859375 17.9765625 -7.6171875 18.953125 C-10.04718856 19.79809896 -10.04718856 19.79809896 -11.28125 21.625 C-12.29223811 24.96565635 -12.46786466 28.28647526 -12.625 31.75 C-12.66367188 32.44738281 -12.70234375 33.14476562 -12.7421875 33.86328125 C-12.83598624 35.57510818 -12.91906174 37.28751682 -13 39 C-10.03 39 -7.06 39 -4 39 C-4 44.94 -4 50.88 -4 57 C-6.97 57 -9.94 57 -13 57 C-12.98428955 58.4319873 -12.9685791 59.86397461 -12.95239258 61.33935547 C-12.89780204 66.68809309 -12.86354431 72.0368064 -12.83520508 77.38574219 C-12.82018459 79.69405265 -12.79976221 82.00233488 -12.77368164 84.31054688 C-12.73700115 87.64199825 -12.72020569 90.97306995 -12.70703125 94.3046875 C-12.69154739 95.32488983 -12.67606354 96.34509216 -12.66011047 97.39620972 C-12.65767817 107.91855425 -15.12888776 116.87667572 -22 125 C-29.56915379 131.98953391 -37.031233 132.22152816 -47 132 C-46.67 126.39 -46.34 120.78 -46 115 C-43.78645833 114.64192708 -41.57291667 114.28385417 -39.359375 113.92578125 C-35.8885619 112.56388935 -34.92945201 111.2350213 -33 108 C-32.38069237 104.12390851 -32.39504361 100.27461421 -32.390625 96.35546875 C-32.37408875 95.2305452 -32.35755249 94.10562164 -32.34051514 92.9466095 C-32.29200217 89.3601843 -32.27065591 85.77418326 -32.25 82.1875 C-32.22184323 79.75323383 -32.19191622 77.31898745 -32.16015625 74.88476562 C-32.08624218 68.92325417 -32.0346189 62.96186216 -32 57 C-34.64 57 -37.28 57 -40 57 C-40 51.06 -40 45.12 -40 39 C-37.36 39 -34.72 39 -32 39 C-32.02320313 38.17757812 -32.04640625 37.35515625 -32.0703125 36.5078125 C-32.24211691 25.88048276 -31.96371796 16.51730334 -25 8 C-17.24351921 0.01277722 -10.92491161 -0.22070529 0 0 Z " fill="#D42E12" transform="translate(211,38)"/>
<path d="M0 0 C0.66 0 1.32 0 2 0 C2.495 8.91 2.495 8.91 3 18 C3.99 15.69 4.98 13.38 6 11 C7.09658936 14.28976808 6.79953138 15.71303767 6 19 C6.69867188 17.989375 7.39734375 16.97875 8.1171875 15.9375 C9.03610881 14.62475527 9.95539872 13.31226849 10.875 12 C11.33519531 11.33226562 11.79539063 10.66453125 12.26953125 9.9765625 C13.46305946 8.28140649 14.72690339 6.6362422 16 5 C16.66 5 17.32 5 18 5 C16.55797524 9.15151338 14.4989562 12.29978445 11.875 15.8125 C11.15054688 16.78832031 10.42609375 17.76414062 9.6796875 18.76953125 C9.12539063 19.50558594 8.57109375 20.24164062 8 21 C8.61359375 20.69320313 9.2271875 20.38640625 9.859375 20.0703125 C11.90625 19.046875 13.953125 18.0234375 16 17 C14.63016497 20.16115776 14.0109362 20.9927092 11 23 C11.71285156 22.79503906 12.42570312 22.59007813 13.16015625 22.37890625 C18.43976749 20.89379353 23.54711116 19.60587654 29 19 C29 19.66 29 20.32 29 21 C23.06 22.98 17.12 24.96 11 27 C13.97 27.33 16.94 27.66 20 28 C20 28.33 20 28.66 20 29 C16.7 29.33 13.4 29.66 10 30 C15.94 31.98 21.88 33.96 28 36 C28 36.66 28 37.32 28 38 C21.54945018 36.64746536 15.28894321 34.96939767 9 33 C11.31 34.65 13.62 36.3 16 38 C15.505 38.99 15.505 38.99 15 40 C13.02 38.68 11.04 37.36 9 36 C10.07955259 37.73152958 11.16382512 39.46011684 12.25 41.1875 C12.85328125 42.15042969 13.4565625 43.11335938 14.078125 44.10546875 C15.95971895 47.04205091 15.95971895 47.04205091 18.234375 49.73828125 C20 52 20 52 20 54 C25.28 54 30.56 54 36 54 C36.02313372 65.69999714 36.04092036 77.39998887 36.05181217 89.1000042 C36.05703874 94.53233521 36.0641323 99.96465062 36.07543945 105.39697266 C36.08627634 110.63593831 36.09227855 115.87488891 36.09487724 121.1138649 C36.09673004 123.11621462 36.10034789 125.11856348 36.10573006 127.12090683 C36.11295109 129.91769972 36.11399049 132.71442982 36.11352539 135.51123047 C36.11712067 136.34560638 36.12071594 137.1799823 36.12442017 138.03964233 C36.11405216 143.77189568 36.11405216 143.77189568 35 146 C33.6070874 146.02187378 33.6070874 146.02187378 32.18603516 146.04418945 C28.74533504 146.10519172 25.30544348 146.1793305 21.86523438 146.26245117 C20.37543428 146.29573463 18.88550705 146.32375597 17.39550781 146.34643555 C15.25530748 146.37992071 13.11627581 146.43222789 10.9765625 146.48828125 C9.68830566 146.51446533 8.40004883 146.54064941 7.07275391 146.56762695 C6.05874512 146.71031006 5.04473633 146.85299316 4 147 C3.34 147.99 2.68 148.98 2 150 C1.34 150 0.68 150 0 150 C-0.66 149.01 -1.32 148.02 -2 147 C-5.07061039 146.52090298 -5.07061039 146.52090298 -8.6875 146.55859375 C-9.34580811 146.54538589 -10.00411621 146.53217804 -10.68237305 146.51856995 C-12.78829162 146.4776191 -14.89377291 146.45598831 -17 146.4375 C-19.10609397 146.41373081 -21.21177469 146.38563835 -23.31762695 146.34571838 C-25.22850876 146.31015683 -27.13966397 146.29033643 -29.05078125 146.27124023 C-32 146 -32 146 -34 144 C-34.18820955 141.1380255 -34.25171793 138.3735521 -34.22705078 135.51123047 C-34.22734283 134.63311707 -34.22763489 133.75500366 -34.22793579 132.85028076 C-34.22653912 129.93915019 -34.21096213 127.02827353 -34.1953125 124.1171875 C-34.19158357 122.10222514 -34.18873603 120.08726096 -34.18673706 118.07229614 C-34.17909118 112.76217668 -34.1594345 107.45216618 -34.1373291 102.14208984 C-34.11689121 96.72625197 -34.10773975 91.31039655 -34.09765625 85.89453125 C-34.07618951 75.26297289 -34.04204207 64.6314955 -34 54 C-28.72 54 -23.44 54 -18 54 C-17.34 52.35 -16.68 50.7 -16 49 C-14.49837594 46.83972134 -12.98665359 44.75998579 -11.375 42.6875 C-10.95476563 42.13771484 -10.53453125 41.58792969 -10.1015625 41.02148438 C-9.07279961 39.67707832 -8.0370991 38.33798587 -7 37 C-7.598125 37.309375 -8.19625 37.61875 -8.8125 37.9375 C-11 39 -11 39 -14 40 C-12.77065985 36.31197956 -11.06140622 35.27643027 -8 33 C-9.03640625 33.37253906 -10.0728125 33.74507812 -11.140625 34.12890625 C-12.51022242 34.60732727 -13.88002502 35.08516121 -15.25 35.5625 C-16.27287109 35.9327832 -16.27287109 35.9327832 -17.31640625 36.31054688 C-23.58342161 38.47053761 -23.58342161 38.47053761 -27 37 C-20.73219641 34.42221856 -14.45038127 32.08076815 -8 30 C-10.97 29.67 -13.94 29.34 -17 29 C-17 28.67 -17 28.34 -17 28 C-13.04 27.505 -13.04 27.505 -9 27 C-17.415 24.03 -17.415 24.03 -26 21 C-26 20.34 -26 19.68 -26 19 C-20.30694567 20.23876645 -14.64629987 21.56276003 -9 23 C-10.65 21.68 -12.3 20.36 -14 19 C-13.67 18.34 -13.34 17.68 -13 17 C-10.69 18.65 -8.38 20.3 -6 22 C-6.38671875 21.41992188 -6.7734375 20.83984375 -7.171875 20.2421875 C-8.24859805 18.62710292 -9.32406565 17.01118083 -10.3984375 15.39453125 C-11.35213977 13.96863005 -12.31307706 12.54746134 -13.2890625 11.13671875 C-16 7.20683453 -16 7.20683453 -16 5 C-11.9255567 6.35814777 -10.57978049 9.1308426 -8.3125 12.5625 C-7.89677734 13.17802734 -7.48105469 13.79355469 -7.05273438 14.42773438 C-6.02806838 15.94706671 -5.01309322 17.47292657 -4 19 C-4.33 16.36 -4.66 13.72 -5 11 C-4.34 11.33 -3.68 11.66 -3 12 C-2.375 15.0625 -2.375 15.0625 -2 18 C-1.34 18 -0.68 18 0 18 C0 12.06 0 6.12 0 0 Z M-3 20 C-2 22 -2 22 -2 22 Z M-1 23 C0 25 0 25 0 25 Z M2 23 C3 25 3 25 3 25 Z M-6 25 C-4.515 25.99 -4.515 25.99 -3 27 C-2.34 26.67 -1.68 26.34 -1 26 C-2.65 25.67 -4.3 25.34 -6 25 Z M4 25 C4.33 25.66 4.66 26.32 5 27 C5.66 26.34 6.32 25.68 7 25 C6.01 25 5.02 25 4 25 Z M-3 30 C-2.67 30.66 -2.34 31.32 -2 32 C-1.67 31.34 -1.34 30.68 -1 30 C-1.66 30 -2.32 30 -3 30 Z M4 30 C5 32 5 32 5 32 Z M-1 32 C-1.33 32.66 -1.66 33.32 -2 34 C-1.34 34 -0.68 34 0 34 C-0.33 33.34 -0.66 32.68 -1 32 Z M2 32 C2 32.66 2 33.32 2 34 C2.66 33.67 3.32 33.34 4 33 C3.34 32.67 2.68 32.34 2 32 Z M2 36 C2 41.94 2 47.88 2 54 C7.28 54 12.56 54 18 54 C14.1798613 48.17883626 10.24221254 42.52089362 6 37 C4.89459074 39.78918149 4.89459074 39.78918149 5 42 C4.34 40.02 3.68 38.04 3 36 C2.67 36 2.34 36 2 36 Z M-1 36 C-1.99 38.97 -2.98 41.94 -4 45 C-3.67 42.69 -3.34 40.38 -3 38 C-7.21452077 39.40484026 -8.76328774 42.48644842 -11.1875 46 C-11.65091797 46.65484375 -12.11433594 47.3096875 -12.59179688 47.984375 C-14.9389344 50.75546136 -14.9389344 50.75546136 -16 54 C-10.72 54 -5.44 54 0 54 C0 48.06 0 42.12 0 36 C-0.33 36 -0.66 36 -1 36 Z M-32 56 C-32 70.19 -32 84.38 -32 99 C-24.74 99 -17.48 99 -10 99 C-9.01 97.02 -8.02 95.04 -7 93 C-4.69 92.01 -2.38 91.02 0 90 C0 78.78 0 67.56 0 56 C-10.56 56 -21.12 56 -32 56 Z M2 56 C1.81582014 60.61217063 1.6568803 65.21153669 1.56054688 69.82446289 C1.52040038 71.39130925 1.46586566 72.95785742 1.39648438 74.52368164 C0.58590684 83.31011913 0.58590684 83.31011913 3.74609375 90.95556641 C5.84667099 92.2303254 5.84667099 92.2303254 8.07226562 92.91137695 C10 94 10 94 12 100 C19.26 100 26.52 100 34 100 C34 85.48 34 70.96 34 56 C23.44 56 12.88 56 2 56 Z M-3 93 C-5.53906064 95.61373889 -6.92256852 97.12889581 -7.25 100.8125 C-7.1675 101.534375 -7.085 102.25625 -7 103 C-4.38275905 100.63202009 -2.67138271 98.10399646 -1 95 C-1 94.34 -1 93.68 -1 93 C-1.66 93 -2.32 93 -3 93 Z M3 93 C4.65 96.3 6.3 99.6 8 103 C8.33 103 8.66 103 9 103 C9.33663062 99.29706315 9.47736015 97.60465619 7.125 94.625 C5.18106686 92.79751663 5.18106686 92.79751663 3 93 Z M1 94 C0.34 95.32 -0.32 96.64 -1 98 C0.32 98 1.64 98 3 98 C2.34 96.68 1.68 95.36 1 94 Z M-9 98 C-9 99.65 -9 101.3 -9 103 C-8.67 103 -8.34 103 -8 103 C-8 101.35 -8 99.7 -8 98 C-8.33 98 -8.66 98 -9 98 Z M0 99 C0 100.32 0 101.64 0 103 C0.99 102.67 1.98 102.34 3 102 C2.67 101.01 2.34 100.02 2 99 C1.34 99 0.68 99 0 99 Z M-32 101 C-32.02290595 106.9631823 -32.04283396 112.92621311 -32.05493164 118.8894043 C-32.05997278 120.91968298 -32.06680557 122.94995802 -32.07543945 124.98022461 C-32.08751467 127.89177347 -32.09323034 130.8032745 -32.09765625 133.71484375 C-32.10281754 134.6283812 -32.10797882 135.54191864 -32.11329651 136.48313904 C-32.11349168 138.65575427 -32.06211805 140.82827296 -32 143 C-30.08780415 144.91219585 -26.66354496 144.24435298 -24.12109375 144.31640625 C-23.4344313 144.33718735 -22.74776886 144.35796844 -22.04029846 144.37937927 C-19.83947065 144.44494143 -17.63852025 144.50379015 -15.4375 144.5625 C-13.94855486 144.60567892 -12.45962227 144.649293 -10.97070312 144.69335938 C-7.31393447 144.8006293 -3.65702682 144.90187772 0 145 C0.19830404 140.39210058 0.34315655 135.78669851 0.43945312 131.17553711 C0.47959962 129.60869075 0.53413434 128.04214258 0.60351562 126.47631836 C1.41409316 117.68988087 1.41409316 117.68988087 -1.74609375 110.04443359 C-3.84667099 108.7696746 -3.84667099 108.7696746 -6.07226562 108.08862305 C-8 107 -8 107 -10 101 C-17.26 101 -24.52 101 -32 101 Z M12 101 C11.01 103.31 10.02 105.62 9 108 C6.69 109.32 4.38 110.64 2 112 C2 122.89 2 133.78 2 145 C7.094375 144.855625 12.18875 144.71125 17.4375 144.5625 C19.85147095 144.49784546 19.85147095 144.49784546 22.31420898 144.43188477 C24.19861694 144.3747229 24.19861694 144.3747229 26.12109375 144.31640625 C28.06133423 144.26141968 28.06133423 144.26141968 30.04077148 144.20532227 C32.88555008 144.3332722 32.88555008 144.3332722 34 143 C34.08874135 139.89748799 34.11518455 136.8173188 34.09765625 133.71484375 C34.09553383 132.31861534 34.09553383 132.31861534 34.09336853 130.8941803 C34.08775172 127.90858809 34.0751964 124.92306971 34.0625 121.9375 C34.05748716 119.91862087 34.05292388 117.89974057 34.04882812 115.88085938 C34.03862587 110.92052129 34.01905382 105.9603437 34 101 C26.74 101 19.48 101 12 101 Z M-4 106 C-3.01 106.99 -2.02 107.98 -1 109 C2.11993606 108.92457659 2.11993606 108.92457659 5 108 C5.33 107.34 5.66 106.68 6 106 C2.7 106 -0.6 106 -4 106 Z " fill="#636B70" transform="translate(34,0)"/>
<path d="M0 0 C5 0 5 0 6.8515625 1.80859375 C7.72941406 3.10990234 7.72941406 3.10990234 8.625 4.4375 C9.29789062 5.42234375 9.97078125 6.4071875 10.6640625 7.421875 C11.44510451 8.61301558 12.22351507 9.80588373 13 11 C13.7110791 12.0837793 13.7110791 12.0837793 14.43652344 13.18945312 C17.65826253 18.10564948 20.83117349 23.04870859 24 28 C24.33 18.76 24.66 9.52 25 0 C26.65 0 28.3 0 30 0 C30 12.87 30 25.74 30 39 C25 39 25 39 23.1484375 37.19140625 C22.56320312 36.32386719 21.97796875 35.45632812 21.375 34.5625 C20.70210938 33.57765625 20.02921875 32.5928125 19.3359375 31.578125 C18.55489549 30.38698442 17.77648493 29.19411627 17 28 C16.52594727 27.27748047 16.05189453 26.55496094 15.56347656 25.81054688 C12.34173747 20.89435052 9.16882651 15.95129141 6 11 C5.67 20.24 5.34 29.48 5 39 C3.35 39 1.7 39 0 39 C0 26.13 0 13.26 0 0 Z " fill="#D42E12" transform="translate(373,107)"/>
<path d="M0 0 C21.91666667 0 21.91666667 0 27.3125 5.25 C31.14087778 11.48883786 32.02085692 18.23865952 30.5 25.33203125 C29.02527665 30.38463454 27.28166688 33.7140696 23 37 C17 39 17 39 0 39 C0 26.13 0 13.26 0 0 Z M5 4 C5 14.23 5 24.46 5 35 C16.02200288 35.30700999 16.02200288 35.30700999 24.4375 29.625 C26.76961985 24.21448194 26.80702388 18.80911786 26 13 C23.75022527 8.48766773 21.61022155 6.18378916 17 4 C13.04 4 9.08 4 5 4 Z " fill="#D42E12" transform="translate(645,107)"/>
<path d="M0 0 C21.91666667 0 21.91666667 0 27.3125 5.25 C31.34641757 11.8237916 32.03043906 18.9846599 30.5 26.43359375 C29.07134056 31.3770801 27.60645016 34.3218313 23 37 C17 39 17 39 0 39 C0 26.13 0 13.26 0 0 Z M5 4 C5 14.23 5 24.46 5 35 C14.62258996 35.61923697 14.62258996 35.61923697 22 32 C25.89958707 28.10041293 26.299376 24.75227147 26.4375 19.4375 C26.43084427 13.78678625 25.16147689 10.52172304 21.5 6.25 C16.73872341 2.2822695 11.21754991 4 5 4 Z " fill="#D42E12" transform="translate(573,107)"/>
<path d="M0 0 C2.67315587 1.78210391 4.15913746 2.89971172 5.625 5.75 C5.8125 9 5.8125 9 5.625 11.75 C4.305 11.75 2.985 11.75 1.625 11.75 C1.2125 10.80125 0.8 9.8525 0.375 8.875 C-1.10110391 5.81473796 -1.10110391 5.81473796 -3.0625 4.3125 C-6.73543414 3.41908359 -9.66258221 4.03146753 -13.375 4.75 C-15.72473818 6.64755144 -15.72473818 6.64755144 -15.5 9.875 C-15.438125 11.298125 -15.438125 11.298125 -15.375 12.75 C-10.98522254 14.45713568 -6.6729569 15.95941668 -2.125 17.1875 C1.75151303 18.31889397 4.14774063 19.4110852 6.625 22.75 C8.39968842 26.29937685 7.63862937 30.01183819 6.625 33.75 C3.24095022 38.0245892 0.60965887 39.03537882 -4.75 39.75 C-9.80811937 39.97709924 -14.066562 39.54795032 -18.375 36.75 C-21.26291948 33.50109058 -22.30343058 31.71618721 -22.625 27.375 C-22.5425 26.50875 -22.46 25.6425 -22.375 24.75 C-20.725 24.75 -19.075 24.75 -17.375 24.75 C-17.106875 25.86375 -16.83875 26.9775 -16.5625 28.125 C-15.71690981 31.96840951 -15.71690981 31.96840951 -12.375 33.75 C-6.97452042 35.34559624 -4.19883448 34.20920973 0.625 31.75 C1.87656054 30.70137906 1.87656054 30.70137906 1.9375 28.375 C1.89731713 25.69194552 1.89731713 25.69194552 0.04296875 24.2109375 C-3.00427971 22.369789 -5.92788481 21.62638522 -9.375 20.75 C-17.40123746 18.70943115 -17.40123746 18.70943115 -20.375 15.75 C-21.48781505 11.22455213 -21.73325892 8.86692487 -20.3125 4.4375 C-15.36479472 -2.42544604 -7.43069284 -2.75210846 0 0 Z " fill="#D42E12" transform="translate(546.375,107.25)"/>
<path d="M0 0 C18 0 18 0 26 4 C30.99559927 9.4951592 30.68763871 16.06715947 30.38671875 23.1640625 C29.87795823 28.21055577 28.97142193 30.90425626 26 35 C18.19385254 41.04976428 10.04997904 39 0 39 C0 26.13 0 13.26 0 0 Z M5 4 C5 14.23 5 24.46 5 35 C14.33221743 35.28506676 14.33221743 35.28506676 22 32 C26.28755594 27.426607 26.28205653 22.72084894 26.21875 16.73046875 C25.85222321 12.15542904 24.37261316 9.24393068 21 6.1875 C15.42399863 2.87674918 12.5189002 4 5 4 Z " fill="#D42E12" transform="translate(697,107)"/>
<path d="M0 0 C5.0428125 -0.0928125 5.0428125 -0.0928125 10.1875 -0.1875 C11.76374146 -0.22846802 11.76374146 -0.22846802 13.37182617 -0.27026367 C22.10553644 -0.34814602 22.10553644 -0.34814602 26 3 C28.67548031 7.01322046 28.58740465 10.28373655 28 15 C26.5 17.5625 26.5 17.5625 25 19 C25.30679688 19.52464844 25.61359375 20.04929687 25.9296875 20.58984375 C27.25276407 23.56918042 27.66281935 26.33823977 28.125 29.5625 C28.29257812 30.69816406 28.46015625 31.83382812 28.6328125 33.00390625 C29 36 29 36 29 39 C27.35 39 25.7 39 24 39 C23.89042969 38.09636719 23.78085937 37.19273437 23.66796875 36.26171875 C23.43013672 34.49248047 23.43013672 34.49248047 23.1875 32.6875 C23.03667969 31.51574219 22.88585937 30.34398437 22.73046875 29.13671875 C22.18841032 26.1113008 22.18841032 26.1113008 20.90625 24.125 C17.89547247 22.34814768 14.7185523 22.42469168 11.3125 22.3125 C8.899375 22.209375 6.48625 22.10625 4 22 C4 27.61 4 33.22 4 39 C2.68 39 1.36 39 0 39 C0 26.13 0 13.26 0 0 Z M4 4 C4 8.62 4 13.24 4 18 C6.39774745 18.13572155 8.78775245 18.23436868 11.1875 18.3125 C11.86103516 18.35439453 12.53457031 18.39628906 13.22851562 18.43945312 C17.18217688 18.53588389 18.82986094 18.13250359 21.984375 15.67578125 C24.30227205 13.14212989 24.30227205 13.14212989 24.0625 9.875 C22.81124193 6.48924287 22.13157645 5.72514955 19 4 C16.3270555 3.78673315 13.9073788 3.71454369 11.25 3.8125 C10.55261719 3.82603516 9.85523438 3.83957031 9.13671875 3.85351562 C7.42414459 3.8887055 5.71197059 3.94250845 4 4 Z " fill="#D42E12" transform="translate(490,107)"/>
<path d="M0 0 C8.91 0 17.82 0 27 0 C27 1.32 27 2.64 27 4 C19.74 4 12.48 4 5 4 C5 8.29 5 12.58 5 17 C11.6 17 18.2 17 25 17 C25 18.32 25 19.64 25 21 C18.4 21 11.8 21 5 21 C5 25.62 5 30.24 5 35 C12.26 35 19.52 35 27 35 C27 36.32 27 37.64 27 39 C18.09 39 9.18 39 0 39 C0 26.13 0 13.26 0 0 Z " fill="#D42E12" transform="translate(734,107)"/>
<path d="M0 0 C1.65 0 3.3 0 5 0 C5.0093457 0.85231201 5.01869141 1.70462402 5.02832031 2.58276367 C5.07246921 5.76083517 5.13414267 8.93795784 5.20751953 12.11547852 C5.23565375 13.48774907 5.25690586 14.86017941 5.27099609 16.23266602 C5.29252731 18.21138494 5.3412928 20.1897477 5.390625 22.16796875 C5.4220459 23.95110474 5.4220459 23.95110474 5.45410156 25.77026367 C6.10151317 29.60058933 7.26834875 31.28111639 10 34 C14.52110042 35.47427188 17.72608121 35.03982487 22 33 C24.35260752 29.58987185 24.30726048 26.32410163 24.4140625 22.265625 C24.45273437 20.97011719 24.49140625 19.67460938 24.53125 18.33984375 C24.56270267 16.97656716 24.59395007 15.61328582 24.625 14.25 C24.66320469 12.87106972 24.70225787 11.49216266 24.7421875 10.11328125 C24.83648004 6.74232282 24.9220822 3.37137022 25 0 C26.65 0 28.3 0 30 0 C30.08751499 4.52071021 30.1405661 9.0412007 30.1875 13.5625 C30.21263672 14.83931641 30.23777344 16.11613281 30.26367188 17.43164062 C30.32561773 25.38135832 30.36561846 31.23842643 24.875 37.375 C19.76018996 40.26597959 14.97660523 40.29649078 9.25 39.4375 C5.01822293 37.56575245 3.59399327 35.81469598 1 32 C-0.21947536 28.52067099 -0.11429855 25.14568141 -0.09765625 21.484375 C-0.09443359 20.23398438 -0.09121094 18.98359375 -0.08789062 17.6953125 C-0.07951172 16.39335938 -0.07113281 15.09140625 -0.0625 13.75 C-0.05798828 12.43257812 -0.05347656 11.11515625 -0.04882812 9.7578125 C-0.03704316 6.50516259 -0.02059011 3.25260416 0 0 Z " fill="#D42E12" transform="translate(335,107)"/>
<path d="M0 0 C1.98 0 3.96 0 6 0 C7.99802546 5.23115252 9.99174455 10.46391764 11.98144531 15.69824219 C12.65929172 17.47961996 13.3383243 19.26054683 14.01855469 21.04101562 C14.99464206 23.59648636 15.96648811 26.15353463 16.9375 28.7109375 C17.24373291 29.50994476 17.54996582 30.30895203 17.86547852 31.13217163 C20 36.77225659 20 36.77225659 20 39 C18.35 39 16.7 39 15 39 C14.32645501 37.56570999 13.66140299 36.12742943 13 34.6875 C12.443125 33.48673828 12.443125 33.48673828 11.875 32.26171875 C11 30 11 30 11 27 C5.72 27.33 0.44 27.66 -5 28 C-6.32 31.63 -7.64 35.26 -9 39 C-10.65 39 -12.3 39 -14 39 C-13.38173084 34.08726671 -11.90248694 29.75797294 -10.05859375 25.1953125 C-9.6278933 24.1093428 -9.6278933 24.1093428 -9.18849182 23.00143433 C-8.27704996 20.70703126 -7.35742093 18.41601479 -6.4375 16.125 C-5.81521005 14.56271704 -5.19345955 13.00021909 -4.57226562 11.4375 C-3.05440774 7.62248405 -1.52920242 3.81048201 0 0 Z M2 7 C-0.97 14.92 -0.97 14.92 -4 23 C0.29 23 4.58 23 9 23 C8.21735638 20.51764563 7.42444723 18.03943904 6.625 15.5625 C6.40328125 14.85544922 6.1815625 14.14839844 5.953125 13.41992188 C5.35897394 11.5937811 4.68450381 9.79422968 4 8 C3.34 7.67 2.68 7.34 2 7 Z " fill="#D42E12" transform="translate(621,107)"/>
<path d="M0 0 C2.99603944 1.67425733 5.07995516 3.12947179 6.6875 6.25 C7.375 9 7.375 9 7.6875 11.25 C5.4375 11.625 5.4375 11.625 2.6875 11.25 C1.28636384 9.29690112 -0.04589467 7.29291182 -1.3125 5.25 C-4.52035018 2.89757653 -7.40899252 2.7815791 -11.3125 3.25 C-15.21224696 5.16164067 -16.97943201 6.68378441 -19.1875 10.4375 C-21.30597088 17.61676242 -20.97857751 22.94163347 -17.578125 29.62109375 C-16.00865256 31.64106291 -14.69418359 32.34416487 -12.3125 33.25 C-7.80037793 33.67972591 -5.4612551 33.88819728 -1.5 31.6875 C1.2072104 28.67089413 2.3010079 26.04460995 3.6875 22.25 C5.0075 22.25 6.3275 22.25 7.6875 22.25 C7.07963419 28.45023123 5.84361644 32.03228023 1.5 36.5 C-2.85457104 39.20951087 -6.70311158 39.70304907 -11.65234375 38.84375 C-18.16114748 37.02431734 -20.82790953 34.15686487 -24.41796875 28.51171875 C-26.68963685 22.76806883 -26.18150032 14.56306373 -24.625 8.62890625 C-22.54381537 4.04162847 -19.80764036 1.6410321 -15.3125 -0.75 C-9.82552475 -2.57899175 -5.18570504 -2.43976898 0 0 Z " fill="#D42E12" transform="translate(805.3125,107.75)"/>
<path d="M0 0 C8.58 0 17.16 0 26 0 C26 1.32 26 2.64 26 4 C18.74 4 11.48 4 4 4 C4 8.29 4 12.58 4 17 C10.93 17 17.86 17 25 17 C25 18.32 25 19.64 25 21 C18.07 21 11.14 21 4 21 C4 25.62 4 30.24 4 35 C11.26 35 18.52 35 26 35 C26 36.32 26 37.64 26 39 C17.42 39 8.84 39 0 39 C0 26.13 0 13.26 0 0 Z " fill="#D42E12" transform="translate(457,107)"/>
<path d="M0 0 C8.58 0 17.16 0 26 0 C26 1.32 26 2.64 26 4 C18.74 4 11.48 4 4 4 C4 8.29 4 12.58 4 17 C10.6 17 17.2 17 24 17 C24 18.32 24 19.64 24 21 C17.4 21 10.8 21 4 21 C4 25.62 4 30.24 4 35 C11.26 35 18.52 35 26 35 C26 36.32 26 37.64 26 39 C17.42 39 8.84 39 0 39 C0 26.13 0 13.26 0 0 Z " fill="#D42E12" transform="translate(901,107)"/>
<path d="M0 0 C2.4375 1.1875 2.4375 1.1875 3.4375 3.1875 C5.0875 3.8475 6.7375 4.5075 8.4375 5.1875 C8.4375 8.8175 8.4375 12.4475 8.4375 16.1875 C9.7575 16.8475 11.0775 17.5075 12.4375 18.1875 C12.18026447 22.56050405 10.49684152 25.23863964 7.359375 28.14453125 C4.13118068 29.89641719 1.60552598 29.04689068 -1.81640625 28.109375 C-6.43618438 26.55849643 -11.02429309 24.96482058 -15.5625 23.1875 C-15.01526317 19.81287285 -14.5076 18.10515 -12.5625 15.1875 C-12.23603349 12.86917452 -12.12288563 10.58346295 -12.00390625 8.24609375 C-11.5625 6.1875 -11.5625 6.1875 -8.5625 4.1875 C-7.2425 4.1875 -5.9225 4.1875 -4.5625 4.1875 C-4.5625 2.8675 -4.5625 1.5475 -4.5625 0.1875 C-2.5625 -0.8125 -2.5625 -0.8125 0 0 Z M-2.5625 1.1875 C-2.5625 2.1775 -2.5625 3.1675 -2.5625 4.1875 C-1.5725 3.8575 -0.5825 3.5275 0.4375 3.1875 C0.4375 2.5275 0.4375 1.8675 0.4375 1.1875 C-0.5525 1.1875 -1.5425 1.1875 -2.5625 1.1875 Z M-6.5625 5.1875 C-2.5625 6.1875 -2.5625 6.1875 -2.5625 6.1875 Z M-0.5625 5.1875 C-0.5625 5.5175 -0.5625 5.8475 -0.5625 6.1875 C1.0875 6.1875 2.7375 6.1875 4.4375 6.1875 C4.4375 5.8575 4.4375 5.5275 4.4375 5.1875 C2.7875 5.1875 1.1375 5.1875 -0.5625 5.1875 Z M-8.5625 6.1875 C-8.5625 9.1575 -8.5625 12.1275 -8.5625 15.1875 C-6.5825 15.1875 -4.6025 15.1875 -2.5625 15.1875 C-2.5625 14.8575 -2.5625 14.5275 -2.5625 14.1875 C-4.2125 14.1875 -5.8625 14.1875 -7.5625 14.1875 C-7.2325 11.5475 -6.9025 8.9075 -6.5625 6.1875 C-7.2225 6.1875 -7.8825 6.1875 -8.5625 6.1875 Z M-2.5625 6.1875 C-2.5625 9.1875 -2.5625 9.1875 -2.5625 9.1875 Z M4.4375 6.1875 C3.42209888 10.28973585 3.42209888 10.28973585 4.4375 14.1875 C3.7775 13.5275 3.1175 12.8675 2.4375 12.1875 C1.4475 12.1875 0.4575 12.1875 -0.5625 12.1875 C-0.8925 11.5275 -1.2225 10.8675 -1.5625 10.1875 C-1.5625 11.8375 -1.5625 13.4875 -1.5625 15.1875 C0.7475 15.1875 3.0575 15.1875 5.4375 15.1875 C5.4375 12.2175 5.4375 9.2475 5.4375 6.1875 C5.1075 6.1875 4.7775 6.1875 4.4375 6.1875 Z M-12.5625 17.1875 C-11.5625 19.1875 -11.5625 19.1875 -11.5625 19.1875 Z M-6.5625 17.1875 C-6.8925 18.1775 -7.2225 19.1675 -7.5625 20.1875 C-4.77426345 21.2201802 -3.6947726 21.23259293 -0.8125 20.25 C-0.07 19.899375 0.6725 19.54875 1.4375 19.1875 C1.1075 20.5075 0.7775 21.8275 0.4375 23.1875 C1.0975 23.1875 1.7575 23.1875 2.4375 23.1875 C2.870625 22.259375 2.870625 22.259375 3.3125 21.3125 C4.4375 19.1875 4.4375 19.1875 6.4375 17.1875 C2.1475 17.1875 -2.1425 17.1875 -6.5625 17.1875 Z M-14.5625 20.1875 C-14.5625 20.8475 -14.5625 21.5075 -14.5625 22.1875 C-13.5725 22.1875 -12.5825 22.1875 -11.5625 22.1875 C-11.5625 21.5275 -11.5625 20.8675 -11.5625 20.1875 C-12.5525 20.1875 -13.5425 20.1875 -14.5625 20.1875 Z M-6.5625 22.1875 C-6.2325 23.1775 -5.9025 24.1675 -5.5625 25.1875 C-4.9025 24.1975 -4.2425 23.2075 -3.5625 22.1875 C-4.5525 22.1875 -5.5425 22.1875 -6.5625 22.1875 Z M0.4375 24.1875 C0.4375 25.1775 0.4375 26.1675 0.4375 27.1875 C1.4275 27.1875 2.4175 27.1875 3.4375 27.1875 C3.4375 26.1975 3.4375 25.2075 3.4375 24.1875 C2.4475 24.1875 1.4575 24.1875 0.4375 24.1875 Z " fill="#636B70" transform="translate(53.5625,110.8125)"/>
<path d="M0 0 C1.32 0 2.64 0 4 0 C4 5.28 4 10.56 4 16 C10.93 16 17.86 16 25 16 C25 10.72 25 5.44 25 0 C26.32 0 27.64 0 29 0 C29 12.87 29 25.74 29 39 C27.68 39 26.36 39 25 39 C25 32.73 25 26.46 25 20 C18.07 20 11.14 20 4 20 C4 26.27 4 32.54 4 39 C2.68 39 1.36 39 0 39 C0 26.13 0 13.26 0 0 Z " fill="#D42E12" transform="translate(820,107)"/>
<path d="M0 0 C1.65 0 3.3 0 5 0 C8.09346069 7.47426216 10.88024259 15.05384208 13.62524414 22.66137695 C13.91778076 23.46534912 14.21031738 24.26932129 14.51171875 25.09765625 C14.77428467 25.82476807 15.03685059 26.55187988 15.30737305 27.30102539 C15.87275413 29.00203635 15.87275413 29.00203635 17 30 C17.29769287 29.12674072 17.59538574 28.25348145 17.90209961 27.35375977 C19.00490624 24.12329653 20.11031797 20.89374982 21.2175293 17.66479492 C21.69677318 16.26541578 22.1749668 14.86567651 22.65209961 13.46557617 C23.33693985 11.45656923 24.02551057 9.4488753 24.71484375 7.44140625 C25.33540649 5.62684937 25.33540649 5.62684937 25.96850586 3.77563477 C27 1 27 1 28 0 C29.66617115 -0.04063832 31.33388095 -0.042721 33 0 C28.73632789 13.1729254 24.16139884 26.15141139 19 39 C17.35 39 15.7 39 14 39 C10.25194391 30.38946714 7.09947526 21.67488924 4.1875 12.75 C3.78080078 11.51636719 3.37410156 10.28273438 2.95507812 9.01171875 C1.96586326 6.00916069 0.98091585 3.00527733 0 0 Z " fill="#D42E12" transform="translate(420,107)"/>
<path d="M0 0 C0.99 0.66 1.98 1.32 3 2 C3 2.66 3 3.32 3 4 C3.680625 4.2475 4.36125 4.495 5.0625 4.75 C8.56865083 6.24197908 11.71620368 8.06835511 15 10 C12.33333333 10.66666667 9.66666667 11.33333333 7 12 C7.33 12.66 7.66 13.32 8 14 C8.66 13.34 9.32 12.68 10 12 C17.1372549 11.32026144 17.1372549 11.32026144 20.0625 13.625 C21.30943518 16.78390245 20.84699399 18.75318971 20 22 C19.67 22.66 19.34 23.32 19 24 C19.66 24 20.32 24 21 24 C21 27.3 21 30.6 21 34 C19.68 34 18.36 34 17 34 C17 32.35 17 30.7 17 29 C10.73 29 4.46 29 -2 29 C-0.81512605 19.5210084 -0.81512605 19.5210084 1 17 C1.99 16.67 2.98 16.34 4 16 C3.38144369 14.3725363 2.75492695 12.74809644 2.125 11.125 C1.77695313 10.22007813 1.42890625 9.31515625 1.0703125 8.3828125 C0.11469105 5.87782993 0.11469105 5.87782993 -2 4 C-1.34 2.68 -0.68 1.36 0 0 Z M14 14 C14 14.66 14 15.32 14 16 C13.34 16 12.68 16 12 16 C12 16.66 12 17.32 12 18 C12.99 18.495 12.99 18.495 14 19 C13.67 20.65 13.34 22.3 13 24 C15.86724686 23.42655063 16.8614515 23.1385485 19 21 C19 20.01 19 19.02 19 18 C18.34 18 17.68 18 17 18 C16.67 16.68 16.34 15.36 16 14 C15.34 14 14.68 14 14 14 Z M6 15 C7 17 7 17 7 17 Z M8 17 C8.34444881 19.47266765 8.34444881 19.47266765 9 22 C9.66 22.33 10.32 22.66 11 23 C10.34 21.02 9.68 19.04 9 17 C8.67 17 8.34 17 8 17 Z M5 19 C5.33 20.65 5.66 22.3 6 24 C6.99 23.67 7.98 23.34 9 23 C8.34 21.68 7.68 20.36 7 19 C6.34 19 5.68 19 5 19 Z M12 19 C13 21 13 21 13 21 Z M2 22 C1.67 22.66 1.34 23.32 1 24 C1.99 23.67 2.98 23.34 4 23 C3.34 22.67 2.68 22.34 2 22 Z M-1 26 C-1 26.33 -1 26.66 -1 27 C5.27 27 11.54 27 18 27 C18 28.98 18 30.96 18 33 C18.66 33 19.32 33 20 33 C20 30.69 20 28.38 20 26 C13.07 26 6.14 26 -1 26 Z " fill="#636B70" transform="translate(9,106)"/>
<path d="M0 0 C0.33 0.66 0.66 1.32 1 2 C3.64 2 6.28 2 9 2 C9.89663451 3.718048 10.76659588 5.45003497 11.625 7.1875 C12.11226562 8.15042969 12.59953125 9.11335938 13.1015625 10.10546875 C14 13 14 13 13.1484375 15.86328125 C12.76945312 16.56839844 12.39046875 17.27351563 12 18 C9.125 18.125 9.125 18.125 6 18 C5.34 17.34 4.68 16.68 4 16 C4.30309404 11.90823045 4.87699058 8.53834904 7 5 C4.03 4.505 4.03 4.505 1 4 C1.165 4.886875 1.33 5.77375 1.5 6.6875 C2.34061774 12.41790827 2.0781681 18.22424581 2 24 C2.99 24 3.98 24 5 24 C5 24.66 5 25.32 5 26 C4.01 26 3.02 26 2 26 C2 26.99 2 27.98 2 29 C2.66 29 3.32 29 4 29 C3.67 30.32 3.34 31.64 3 33 C1.35 33 -0.3 33 -2 33 C-2.33 31.68 -2.66 30.36 -3 29 C-2.34 29 -1.68 29 -1 29 C-1 28.01 -1 27.02 -1 26 C-2.32 26 -3.64 26 -5 26 C-5 25.34 -5 24.68 -5 24 C-3.68 24 -2.36 24 -1 24 C-1 17.73 -1 11.46 -1 5 C-2.65 5 -4.3 5 -6 5 C-5.484375 6.051875 -4.96875 7.10375 -4.4375 8.1875 C-3.0117889 11.48738531 -2.77101117 13.51786498 -4 17 C-5 18 -5 18 -7.9375 18.25 C-8.948125 18.1675 -9.95875 18.085 -11 18 C-13 15 -13 15 -12.875 12.8125 C-11.68163877 8.97669604 -9.88691563 5.53686977 -8 2 C-5.36 2 -2.72 2 0 2 C0 1.34 0 0.68 0 0 Z M-8 6 C-9.485 9.465 -9.485 9.465 -11 13 C-9.02 13 -7.04 13 -5 13 C-5.66 10.69 -6.32 8.38 -7 6 C-7.33 6 -7.66 6 -8 6 Z M8 6 C7.34 8.31 6.68 10.62 6 13 C7.98 13 9.96 13 12 13 C11.01 10.69 10.02 8.38 9 6 C8.67 6 8.34 6 8 6 Z M-11 14 C-10.01 15.485 -10.01 15.485 -9 17 C-7.68 16.67 -6.36 16.34 -5 16 C-5 15.34 -5 14.68 -5 14 C-6.98 14 -8.96 14 -11 14 Z M6 14 C6 14.66 6 15.32 6 16 C7.32 16.33 8.64 16.66 10 17 C10.66 16.01 11.32 15.02 12 14 C10.02 14 8.04 14 6 14 Z M0 17 C0 18.98 0 20.96 0 23 C0.33 23 0.66 23 1 23 C1 21.02 1 19.04 1 17 C0.67 17 0.34 17 0 17 Z M-2 30 C-1.67 30.66 -1.34 31.32 -1 32 C-0.01 32 0.98 32 2 32 C2 31.34 2 30.68 2 30 C0.68 30 -0.64 30 -2 30 Z " fill="#636B70" transform="translate(18,61)"/>
<path d="M0 0 C1.32 0 2.64 0 4 0 C4 11.55 4 23.1 4 35 C10.93 35 17.86 35 25 35 C25 36.32 25 37.64 25 39 C16.75 39 8.5 39 0 39 C0 26.13 0 13.26 0 0 Z " fill="#D42E12" transform="translate(871,107)"/>
<path d="M0 0 C1.32 0 2.64 0 4 0 C5.65 4.29 7.3 8.58 9 13 C9.7425 11.040625 10.485 9.08125 11.25 7.0625 C12.515625 3.72265625 12.515625 3.72265625 14 1 C15.32 0.67 16.64 0.34 18 0 C18 6.27 18 12.54 18 19 C17.01 19 16.02 19 15 19 C14.67 16.36 14.34 13.72 14 11 C13.01 13.64 12.02 16.28 11 19 C9.68 19 8.36 19 7 19 C6.01 16.36 5.02 13.72 4 11 C3.67 13.64 3.34 16.28 3 19 C2.01 19 1.02 19 0 19 C0 12.73 0 6.46 0 0 Z " fill="#666666" transform="translate(822,76)"/>
<path d="M0 0 C1.65 0 3.3 0 5 0 C5 12.87 5 25.74 5 39 C3.35 39 1.7 39 0 39 C0 26.13 0 13.26 0 0 Z " fill="#D42E12" transform="translate(858,107)"/>
<path d="M0 0 C1.32 0 2.64 0 4 0 C5.65 4.29 7.3 8.58 9 13 C10.98 8.71 12.96 4.42 15 0 C15.99 0 16.98 0 18 0 C18 6.27 18 12.54 18 19 C17.34 19 16.68 19 16 19 C15.67 15.7 15.34 12.4 15 9 C13.68 12.3 12.36 15.6 11 19 C9.68 18.67 8.36 18.34 7 18 C5.55036313 15.44149911 4.89599095 12.8223715 4 10 C3.67 12.97 3.34 15.94 3 19 C2.01 19 1.02 19 0 19 C0 12.73 0 6.46 0 0 Z " fill="#666666" transform="translate(757,76)"/>
<path d="M0 0 C1.65 0.33 3.3 0.66 5 1 C5 1.66 5 2.32 5 3 C5.804375 3.144375 6.60875 3.28875 7.4375 3.4375 C10 4 10 4 11 5 C11.042721 6.66611905 11.04063832 8.33382885 11 10 C11 10.66 11 11.32 11 12 C11.99 12.33 12.98 12.66 14 13 C14 14.98 14 16.96 14 19 C14.99 19 15.98 19 17 19 C17.226875 19.825 17.45375 20.65 17.6875 21.5 C19.06223022 25.16594724 20.84193076 27.97988422 23.07421875 31.16796875 C23.53248047 32.07482422 23.53248047 32.07482422 24 33 C23.67 33.99 23.34 34.98 23 36 C21.35 35.67 19.7 35.34 18 35 C18 34.34 18 33.68 18 33 C17.34 33 16.68 33 16 33 C15.67 32.01 15.34 31.02 15 30 C14.34 29.67 13.68 29.34 13 29 C13 27.02 13 25.04 13 23 C11.35 22.67 9.7 22.34 8 22 C8.33 20.35 8.66 18.7 9 17 C8.236875 16.855625 7.47375 16.71125 6.6875 16.5625 C3.03539479 14.43918302 2.75167803 12.23621756 1.67578125 8.2890625 C1.0704491 5.96032043 1.0704491 5.96032043 -0.14453125 3.8359375 C-0.42683594 3.23007812 -0.70914063 2.62421875 -1 2 C-0.67 1.34 -0.34 0.68 0 0 Z M2 1 C1.67 1.99 1.34 2.98 1 4 C1.66 4 2.32 4 3 4 C2.67 3.01 2.34 2.02 2 1 Z M3 4 C4 6 4 6 4 6 Z M6 5 C4.63047327 7.73905345 4.87378639 9.97087332 5 13 C5.33 13.66 5.66 14.32 6 15 C8.32156597 15.40729228 10.6568787 15.74438677 13 16 C13 15.34 13 14.68 13 14 C11.35 13.67 9.7 13.34 8 13 C7.67 11.35 7.34 9.7 7 8 C7.99 7.67 8.98 7.34 10 7 C9.67 6.34 9.34 5.68 9 5 C8.01 5 7.02 5 6 5 Z M10 20 C10.33 20.66 10.66 21.32 11 22 C12.65 22 14.3 22 16 22 C15.67 21.34 15.34 20.68 15 20 C13.35 20 11.7 20 10 20 Z M17 28 C18 31 18 31 18 31 Z " fill="#636B70" transform="translate(41,60)"/>
<path d="M0 0 C4.73751475 1.18437869 5.15741989 2.12377253 7.75 6.0625 C8.36359375 6.98160156 8.9771875 7.90070313 9.609375 8.84765625 C10.06828125 9.55792969 10.5271875 10.26820312 11 11 C11.33 7.37 11.66 3.74 12 0 C12.99 0 13.98 0 15 0 C15 6.27 15 12.54 15 19 C10.26248525 17.81562131 9.84258011 16.87622747 7.25 12.9375 C6.32960938 11.55884766 6.32960938 11.55884766 5.390625 10.15234375 C4.93171875 9.44207031 4.4728125 8.73179688 4 8 C3.67 11.63 3.34 15.26 3 19 C2.01 19 1.02 19 0 19 C0 12.73 0 6.46 0 0 Z " fill="#666666" transform="translate(552,76)"/>
<path d="M0 0 C1.32 0 2.64 0 4 0 C4 12.87 4 25.74 4 39 C2.68 39 1.36 39 0 39 C0 26.13 0 13.26 0 0 Z " fill="#D42E12" transform="translate(561,107)"/>
<path d="M0 0 C1.32 0 2.64 0 4 0 C4 12.87 4 25.74 4 39 C2.68 39 1.36 39 0 39 C0 26.13 0 13.26 0 0 Z " fill="#D42E12" transform="translate(412,107)"/>
<path d="M0 0 C0.99 0.66 1.98 1.32 3 2 C3.1875 4.625 3.1875 4.625 3 7 C2.34 7 1.68 7 1 7 C0.38125 6.34 -0.2375 5.68 -0.875 5 C-2.9991076 2.5430902 -2.9991076 2.5430902 -7 3 C-7 4.32 -7 5.64 -7 7 C-3.7 7.99 -0.4 8.98 3 10 C3.33 12.31 3.66 14.62 4 17 C1.59688219 19.21826259 0.30074854 19.96867203 -3 20.3125 C-7.77198697 19.81541802 -7.77198697 19.81541802 -10 18 C-10.75 14.875 -10.75 14.875 -11 12 C-8 13 -8 13 -6 16 C-2.91634129 16.2502157 -2.91634129 16.2502157 0 16 C0 15.01 0 14.02 0 13 C-0.63808594 12.72285156 -1.27617188 12.44570312 -1.93359375 12.16015625 C-2.75988281 11.79792969 -3.58617187 11.43570313 -4.4375 11.0625 C-5.26121094 10.70285156 -6.08492187 10.34320313 -6.93359375 9.97265625 C-9 9 -9 9 -10 8 C-10.28792759 5.26468791 -10.34443368 3.58756334 -8.9375 1.1875 C-5.93702602 -0.65150018 -3.43518387 -0.30671285 0 0 Z " fill="#666666" transform="translate(666,76)"/>
<path d="M0 0 C1.875 0.32421875 1.875 0.32421875 3.875 1.57421875 C4.875 3.32421875 4.875 3.32421875 4.875 7.32421875 C3.885 7.32421875 2.895 7.32421875 1.875 7.32421875 C1.545 6.33421875 1.215 5.34421875 0.875 4.32421875 C-1.04166667 3.49088542 -1.04166667 3.49088542 -3.125 3.32421875 C-4.115 3.81921875 -4.115 3.81921875 -5.125 4.32421875 C-4.488603 7.40785725 -4.488603 7.40785725 -2.3125 8.23828125 C-1.590625 8.47289063 -0.86875 8.7075 -0.125 8.94921875 C3.80548128 10.25470003 3.80548128 10.25470003 4.875 11.32421875 C5.1875 14.19921875 5.1875 14.19921875 4.875 17.32421875 C2.64531412 19.89693323 1.25004726 20.27733784 -2.125 20.69921875 C-5.47249528 20.28078184 -6.87548621 19.83329183 -9.125 17.32421875 C-9.375 14.63671875 -9.375 14.63671875 -9.125 12.32421875 C-8.465 12.32421875 -7.805 12.32421875 -7.125 12.32421875 C-6.465 13.64421875 -5.805 14.96421875 -5.125 16.32421875 C-3.145 16.32421875 -1.165 16.32421875 0.875 16.32421875 C1.205 15.33421875 1.535 14.34421875 1.875 13.32421875 C1.16472656 13.09347656 0.45445312 12.86273438 -0.27734375 12.625 C-1.19644531 12.29886719 -2.11554687 11.97273438 -3.0625 11.63671875 C-3.97902344 11.32347656 -4.89554688 11.01023437 -5.83984375 10.6875 C-8.125 9.32421875 -8.125 9.32421875 -9 6.82421875 C-9.125 4.32421875 -9.125 4.32421875 -8.1875 2.01171875 C-5.43133923 -0.24332188 -3.48112235 -0.18557454 0 0 Z " fill="#666666" transform="translate(720.125,75.67578125)"/>
<path d="M0 0 C1.32 0.33 2.64 0.66 4 1 C3.61070312 1.65613281 3.22140625 2.31226562 2.8203125 2.98828125 C1.6288933 7.36249173 3.14815335 10.12757331 4.875 14.1875 C8 21.84989083 8 21.84989083 8 24 C7.01 24 6.02 24 5 24 C4.814375 23.360625 4.62875 22.72125 4.4375 22.0625 C3.05753944 19.57873787 3.05753944 19.57873787 -0.625 19.25 C-1.73875 19.1675 -2.8525 19.085 -4 19 C-4.99 21.475 -4.99 21.475 -6 24 C-6.99 23.67 -7.98 23.34 -9 23 C-8.59007812 21.98679687 -8.18015625 20.97359375 -7.7578125 19.9296875 C-7.2134483 18.5781626 -6.66918271 17.22659798 -6.125 15.875 C-5.85558594 15.20984375 -5.58617187 14.5446875 -5.30859375 13.859375 C-3.73438776 9.94305765 -2.32103865 6.01072096 -1 2 C-0.67 1.34 -0.34 0.68 0 0 Z M-1 10 C-1.66 11.98 -2.32 13.96 -3 16 C-1.35 16 0.3 16 2 16 C1.34 14.02 0.68 12.04 0 10 C-0.33 10 -0.66 10 -1 10 Z " fill="#666666" transform="translate(850,71)"/>
<path d="M0 0 C2.68636205 0.06825602 3.78157595 0.12814359 6.0625 1.625 C7.0625 3.3125 7.0625 3.3125 7.0625 6.3125 C6.0725 6.3125 5.0825 6.3125 4.0625 6.3125 C3.588125 5.796875 3.11375 5.28125 2.625 4.75 C2.109375 4.275625 1.59375 3.80125 1.0625 3.3125 C-1.10049211 3.54007731 -1.10049211 3.54007731 -2.9375 4.3125 C-2.6075 5.3025 -2.2775 6.2925 -1.9375 7.3125 C-0.12868566 8.14839462 -0.12868566 8.14839462 2 8.6875 C5.87058907 10.00544252 5.87058907 10.00544252 7.625 12.8125 C8.0625 15.3125 8.0625 15.3125 7.0625 18.3125 C4.38631232 20.45345015 2.20881719 20.39497507 -1.0625 20.0625 C-4.9375 19.3125 -4.9375 19.3125 -6.9375 17.3125 C-7.0625 14.6875 -7.0625 14.6875 -6.9375 12.3125 C-5.9475 12.3125 -4.9575 12.3125 -3.9375 12.3125 C-3.9375 13.6325 -3.9375 14.9525 -3.9375 16.3125 C-1.6275 16.3125 0.6825 16.3125 3.0625 16.3125 C3.3925 15.3225 3.7225 14.3325 4.0625 13.3125 C-0.8875 11.3325 -0.8875 11.3325 -5.9375 9.3125 C-6.0625 5.9375 -6.0625 5.9375 -5.9375 2.3125 C-3.9375 0.3125 -3.9375 0.3125 0 0 Z " fill="#666666" transform="translate(918.9375,75.6875)"/>
<path d="M0 0 C2 1.875 2 1.875 3 4 C3 4.66 3 5.32 3 6 C1.68 5.67 0.36 5.34 -1 5 C-1 4.34 -1 3.68 -1 3 C-3.31 3 -5.62 3 -8 3 C-8 4.32 -8 5.64 -8 7 C-7.37351562 7.12117188 -6.74703125 7.24234375 -6.1015625 7.3671875 C-5.28429687 7.53476563 -4.46703125 7.70234375 -3.625 7.875 C-2.81289063 8.03742188 -2.00078125 8.19984375 -1.1640625 8.3671875 C1 9 1 9 3 11 C3.25 14 3.25 14 3 17 C0.15386732 19.84613268 -2.04000344 19.79864424 -6 20 C-8.875 18.875 -8.875 18.875 -11 17 C-11.8125 14.3125 -11.8125 14.3125 -12 12 C-11.01 12 -10.02 12 -9 12 C-8.34 13.32 -7.68 14.64 -7 16 C-5.02 16 -3.04 16 -1 16 C-0.67 14.68 -0.34 13.36 0 12 C-0.62648438 11.87882812 -1.25296875 11.75765625 -1.8984375 11.6328125 C-3.12433594 11.38144531 -3.12433594 11.38144531 -4.375 11.125 C-5.18710937 10.96257812 -5.99921875 10.80015625 -6.8359375 10.6328125 C-9 10 -9 10 -11 8 C-10.75 4.4375 -10.75 4.4375 -10 1 C-6.81685629 -0.59157185 -3.45673445 -0.53017399 0 0 Z " fill="#666666" transform="translate(622,76)"/>
<path d="M0 0 C2 1.25 2 1.25 3 3 C3 4.32 3 5.64 3 7 C0.00667261 6.0022242 -0.94766315 5.2477975 -3 3 C-6.24983135 4.08784968 -6.24983135 4.08784968 -9 6 C-9.33856828 11.32673036 -9.33856828 11.32673036 -7 16 C-4.54327108 16.66685938 -4.54327108 16.66685938 -2 16 C-0.3553326 13.53673288 -0.3553326 13.53673288 1 11 C1.99 11 2.98 11 4 11 C3.66009204 14.05917167 3.14301602 15.80401508 1.3125 18.3125 C-1 20 -1 20 -3.9375 20.5 C-7.69553075 19.88644396 -9.32814424 18.67185576 -12 16 C-13.53784153 11.3864754 -13.74741859 7.56278431 -11.625 3.125 C-8.58348959 -0.85235976 -4.68686989 -0.53673766 0 0 Z " fill="#666666" transform="translate(891,76)"/>
<path d="M0 0 C4.29 0 8.58 0 13 0 C13 0.99 13 1.98 13 3 C9.7 3 6.4 3 3 3 C3 4.65 3 6.3 3 8 C5.97 8 8.94 8 12 8 C12 8.99 12 9.98 12 11 C9.03 11 6.06 11 3 11 C3 12.98 3 14.96 3 17 C6.3 17 9.6 17 13 17 C13 17.66 13 18.32 13 19 C8.71 19 4.42 19 0 19 C0 12.73 0 6.46 0 0 Z " fill="#666666" transform="translate(807,76)"/>
<path d="M0 0 C2.4375 1.25 2.4375 1.25 4 3 C4 4.32 4 5.64 4 7 C3.01 7 2.02 7 1 7 C0.67 6.01 0.34 5.02 0 4 C-3.47262619 2.91056662 -3.47262619 2.91056662 -6.8125 3.9375 C-8.75762371 7.31587275 -8.30635345 10.13994651 -8 14 C-6.17213728 16.20857238 -6.17213728 16.20857238 -3.5625 16.4375 C-2.2940625 16.2209375 -2.2940625 16.2209375 -1 16 C0.71711243 13.55503957 0.71711243 13.55503957 2 11 C2.66 11 3.32 11 4 11 C3.51681957 17.52293578 3.51681957 17.52293578 1.375 19.5 C-2.10541783 20.23271954 -4.56610187 19.91979414 -8 19 C-10.51334966 16.87331952 -11.76055255 15.3468919 -12.34375 12.06640625 C-12.54688828 7.58889994 -11.84207739 4.60725207 -9 1 C-5.94306678 -0.52846661 -3.37015453 -0.23242445 0 0 Z " fill="#666666" transform="translate(689,76)"/>
<path d="M0 0 C0.99 0 1.98 0 3 0 C5.31 6.27 7.62 12.54 10 19 C8.68 19 7.36 19 6 19 C5.67 17.35 5.34 15.7 5 14 C2.36 14 -0.28 14 -3 14 C-3.33 15.65 -3.66 17.3 -4 19 C-4.99 19 -5.98 19 -7 19 C-6.31471486 14.85713983 -5.02109557 11.15886187 -3.5 7.25 C-3.0565625 6.10015625 -2.613125 4.9503125 -2.15625 3.765625 C-1 1 -1 1 0 0 Z M1 5 C0.34 6.98 -0.32 8.96 -1 11 C0.32 11 1.64 11 3 11 C2.67 9.02 2.34 7.04 2 5 C1.67 5 1.34 5 1 5 Z " fill="#666666" transform="translate(701,76)"/>
<path d="M0 0 C0.99 0 1.98 0 3 0 C4.00605593 2.60197202 5.00502525 5.20629362 6 7.8125 C6.28617188 8.55048828 6.57234375 9.28847656 6.8671875 10.04882812 C7.13789062 10.76103516 7.40859375 11.47324219 7.6875 12.20703125 C8.06455078 13.18893433 8.06455078 13.18893433 8.44921875 14.19067383 C9 16 9 16 9 19 C8.01 19 7.02 19 6 19 C5.67 17.35 5.34 15.7 5 14 C2.36 14 -0.28 14 -3 14 C-3.33 15.65 -3.66 17.3 -4 19 C-5.32 18.67 -6.64 18.34 -8 18 C-6.85718854 15.18623705 -5.71091259 12.37397584 -4.5625 9.5625 C-4.23701172 8.76005859 -3.91152344 7.95761719 -3.57617188 7.13085938 C-3.10727539 5.98520508 -3.10727539 5.98520508 -2.62890625 4.81640625 C-2.34088135 4.10943604 -2.05285645 3.40246582 -1.75610352 2.67407227 C-1 1 -1 1 0 0 Z M0 5 C-0.33 6.98 -0.66 8.96 -1 11 C0.32 11 1.64 11 3 11 C2.34 9.02 1.68 7.04 1 5 C0.67 5 0.34 5 0 5 Z " fill="#666666" transform="translate(784,76)"/>
<path d="M0 0 C1.5675 -0.061875 3.135 -0.12375 4.75 -0.1875 C6.07257813 -0.23970703 6.07257813 -0.23970703 7.421875 -0.29296875 C10.50493103 0.05737853 11.78515964 0.85998533 14 3 C15.53784153 7.6135246 15.74741859 11.43721569 13.625 15.875 C12 18 12 18 10 19 C8.29297265 19.06996014 6.58331997 19.08440154 4.875 19.0625 C3.26625 19.041875 1.6575 19.02125 0 19 C0 12.73 0 6.46 0 0 Z M2 2 C2 6.95 2 11.9 2 17 C3.918125 16.8453125 3.918125 16.8453125 5.875 16.6875 C6.59429687 16.62949219 7.31359375 16.57148437 8.0546875 16.51171875 C10.39519216 16.12606964 10.39519216 16.12606964 12 13 C12.38464895 7.66531571 12.38464895 7.66531571 10 3 C8.03638136 2.42251197 8.03638136 2.42251197 5.875 2.3125 C4.59625 2.209375 3.3175 2.10625 2 2 Z " fill="#666666" transform="translate(470,76)"/>
<path d="M0 0 C1.5675 -0.061875 3.135 -0.12375 4.75 -0.1875 C6.07257813 -0.23970703 6.07257813 -0.23970703 7.421875 -0.29296875 C10.53799319 0.06113559 11.81339047 0.76886674 14 3 C15.2973666 6.98157335 15.27879154 10.90806646 14.25 14.9375 C13 17 13 17 10 19 C6.64683663 19.26402861 3.36941342 19.08751723 0 19 C0 12.73 0 6.46 0 0 Z M2 2 C2 6.95 2 11.9 2 17 C3.918125 16.8453125 3.918125 16.8453125 5.875 16.6875 C6.59429687 16.62949219 7.31359375 16.57148437 8.0546875 16.51171875 C10.39519216 16.12606964 10.39519216 16.12606964 12 13 C12.46253215 8.37983291 12.46253215 8.37983291 10.9375 4.125 C8.35048872 2.46103508 8.35048872 2.46103508 2 2 Z " fill="#666666" transform="translate(443,76)"/>
<path d="M0 0 C0.99 0 1.98 0 3 0 C4.00605593 2.60197202 5.00502525 5.20629362 6 7.8125 C6.28617188 8.55048828 6.57234375 9.28847656 6.8671875 10.04882812 C7.13789062 10.76103516 7.40859375 11.47324219 7.6875 12.20703125 C8.06455078 13.18893433 8.06455078 13.18893433 8.44921875 14.19067383 C9 16 9 16 9 19 C8.01 19 7.02 19 6 19 C5.67 17.35 5.34 15.7 5 14 C2.36 14 -0.28 14 -3 14 C-3.33 15.65 -3.66 17.3 -4 19 C-4.99 19 -5.98 19 -7 19 C-5.17778624 12.38757278 -2.94776396 6.19479329 0 0 Z M1 5 C0.34 6.98 -0.32 8.96 -1 11 C0.65 11 2.3 11 4 11 C3.34 9.02 2.68 7.04 2 5 C1.67 5 1.34 5 1 5 Z " fill="#666666" transform="translate(902,76)"/>
<path d="M0 0 C0.99 0 1.98 0 3 0 C3.33 4.95 3.66 9.9 4 15 C8.47702364 16.06537205 8.47702364 16.06537205 11 16 C11.33 10.72 11.66 5.44 12 0 C12.99 0 13.98 0 15 0 C15.0814222 2.22855574 15.13938079 4.45797655 15.1875 6.6875 C15.22230469 7.92886719 15.25710938 9.17023438 15.29296875 10.44921875 C14.9796252 14.24694258 14.4657126 16.10972761 12 19 C9.84375 19.59375 9.84375 19.59375 7.5 19.5 C6.7265625 19.4896875 5.953125 19.479375 5.15625 19.46875 C3 19 3 19 1.23046875 17.98046875 C-0.7442027 14.80218803 -0.31068254 11.42901297 -0.1875 7.8125 C-0.17396484 7.06291016 -0.16042969 6.31332031 -0.14648438 5.54101562 C-0.11118539 3.69370233 -0.05737917 1.84675934 0 0 Z " fill="#666666" transform="translate(383,76)"/>
<path d="M0 0 C0.79148437 -0.02578125 1.58296875 -0.0515625 2.3984375 -0.078125 C4.625 0.25 4.625 0.25 6.4140625 1.578125 C7.625 3.25 7.625 3.25 7.625 6.25 C6.635 6.25 5.645 6.25 4.625 6.25 C3.965 5.26 3.305 4.27 2.625 3.25 C0.125 2.75 0.125 2.75 -2.375 3.25 C-4.83824069 6.94486103 -4.76491688 8.88293092 -4.375 13.25 C-3.35078739 15.35938785 -3.35078739 15.35938785 -1.375 16.25 C1.22389783 16.33024658 1.22389783 16.33024658 3.625 15.25 C4.98520151 13.28241727 4.98520151 13.28241727 5.625 11.25 C6.615 11.25 7.605 11.25 8.625 11.25 C6.875 17 6.875 17 4.625 19.25 C2.56640625 19.55078125 2.56640625 19.55078125 0.1875 19.5625 C-0.98619141 19.58763672 -0.98619141 19.58763672 -2.18359375 19.61328125 C-4.89425408 19.16392045 -5.72220635 18.40823513 -7.375 16.25 C-8.56711438 12.67365687 -8.63426574 10.00935317 -8.375 6.25 C-6.02549672 1.55099345 -5.18425958 0.10066523 0 0 Z " fill="#666666" transform="translate(372.375,75.75)"/>
<path d="M0 0 C1.32 0 2.64 0 4 0 C5.00605593 2.60197202 6.00502525 5.20629362 7 7.8125 C7.28617187 8.55048828 7.57234375 9.28847656 7.8671875 10.04882812 C8.13789063 10.76103516 8.40859375 11.47324219 8.6875 12.20703125 C9.06455078 13.18893433 9.06455078 13.18893433 9.44921875 14.19067383 C10 16 10 16 10 19 C9.01 19 8.02 19 7 19 C6.34 17.35 5.68 15.7 5 14 C2.69 13.67 0.38 13.34 -2 13 C-2.33 14.65 -2.66 16.3 -3 18 C-4.32 18.33 -5.64 18.66 -7 19 C-6.57847656 17.87980469 -6.15695312 16.75960937 -5.72265625 15.60546875 C-5.16924176 14.13282342 -4.61585795 12.66016657 -4.0625 11.1875 C-3.78470703 10.44951172 -3.50691406 9.71152344 -3.22070312 8.95117188 C-2.95322266 8.23896484 -2.68574219 7.52675781 -2.41015625 6.79296875 C-2.04096069 5.81106567 -2.04096069 5.81106567 -1.66430664 4.80932617 C-1.07962967 3.21688185 -0.53644441 1.60933324 0 0 Z M1 5 C0.34 6.98 -0.32 8.96 -1 11 C0.65 11 2.3 11 4 11 C3.65555119 8.52733235 3.65555119 8.52733235 3 6 C2.34 5.67 1.68 5.34 1 5 Z " fill="#666666" transform="translate(353,76)"/>
<path d="M0 0 C0.99 0 1.98 0 3 0 C4.17094005 2.7899439 5.33690927 5.58178597 6.5 8.375 C6.83386719 9.1690625 7.16773438 9.963125 7.51171875 10.78125 C7.82753906 11.54179688 8.14335938 12.30234375 8.46875 13.0859375 C8.76201172 13.7876709 9.05527344 14.4894043 9.35742188 15.21240234 C10 17 10 17 10 19 C8.68 18.67 7.36 18.34 6 18 C5.67 16.35 5.34 14.7 5 13 C2.69 13 0.38 13 -2 13 C-2.66 14.98 -3.32 16.96 -4 19 C-4.99 19 -5.98 19 -7 19 C-5.17778624 12.38757278 -2.94776396 6.19479329 0 0 Z M1 4 C0.34 6.31 -0.32 8.62 -1 11 C0.65 11 2.3 11 4 11 C3.34 8.69 2.68 6.38 2 4 C1.67 4 1.34 4 1 4 Z " fill="#666666" transform="translate(600,76)"/>
<path d="M0 0 C2.5 1.875 2.5 1.875 4 4 C4 4.66 4 5.32 4 6 C2.68 5.67 1.36 5.34 0 5 C0 4.34 0 3.68 0 3 C-2.64 3 -5.28 3 -8 3 C-9.24409811 8.9688623 -9.24409811 8.9688623 -7.5625 14.5625 C-6.7890625 15.2740625 -6.7890625 15.2740625 -6 16 C-3.55519921 15.81171228 -3.55519921 15.81171228 -1 15 C0.36020151 13.03241727 0.36020151 13.03241727 1 11 C1.99 11 2.98 11 4 11 C3.25 16.75 3.25 16.75 1 19 C-3.13237851 19.68607056 -6.81774997 19.6055427 -10.5625 17.6875 C-12.9187748 13.28229058 -12.70990477 8.87320046 -12 4 C-9.34165367 -0.76287051 -5.01866546 -1.04898336 0 0 Z " fill="#666666" transform="translate(524,76)"/>
<path d="M0 0 C1.89355469 0.27954102 1.89355469 0.27954102 4 1 C5.29118801 3.67418068 6.30405235 6.14550654 7.25 8.9375 C7.518125 9.67935547 7.78625 10.42121094 8.0625 11.18554688 C10 16.63723693 10 16.63723693 10 19 C9.01 19 8.02 19 7 19 C6.34 17.35 5.68 15.7 5 14 C2.69 13.67 0.38 13.34 -2 13 C-2.66 14.98 -3.32 16.96 -4 19 C-4.99 19 -5.98 19 -7 19 C-4.94235079 12.54646385 -2.57616518 6.2638737 0 0 Z M1 5 C0.34 6.98 -0.32 8.96 -1 11 C0.65 11 2.3 11 4 11 C3.34 9.02 2.68 7.04 2 5 C1.67 5 1.34 5 1 5 Z " fill="#666666" transform="translate(431,76)"/>
<path d="M0 0 C2.59838043 0.57422772 3.55040182 1.34103952 5.12109375 3.46875 C5.12109375 4.45875 5.12109375 5.44875 5.12109375 6.46875 C4.13109375 6.46875 3.14109375 6.46875 2.12109375 6.46875 C1.66734375 5.953125 1.21359375 5.4375 0.74609375 4.90625 C-0.83739794 3.17687482 -0.83739794 3.17687482 -3.44140625 3.53125 C-5.9425744 4.26155474 -5.9425744 4.26155474 -7.25390625 6.15625 C-8.08705889 9.23891476 -7.67935607 11.40035902 -6.87890625 14.46875 C-4.98135481 16.81848818 -4.98135481 16.81848818 -1.75390625 16.59375 C-0.80515625 16.5525 0.14359375 16.51125 1.12109375 16.46875 C1.78109375 14.81875 2.44109375 13.16875 3.12109375 11.46875 C3.78109375 11.46875 4.44109375 11.46875 5.12109375 11.46875 C4.37109375 17.21875 4.37109375 17.21875 2.12109375 19.46875 C-0.93833109 20.02984143 -3.81420358 19.98044103 -6.87890625 19.46875 C-9.72286953 17.3184363 -10.64692989 15.81909658 -11.25 12.30859375 C-11.46252221 8.45099371 -11.09543447 5.93004925 -9.44140625 2.40625 C-6.16641049 -0.06996631 -4.00980402 -0.05409516 0 0 Z " fill="#666666" transform="translate(580.87890625,75.53125)"/>
<path d="M0 0 C4.62 0 9.24 0 14 0 C14 0.66 14 1.32 14 2 C10.37 2 6.74 2 3 2 C3 3.98 3 5.96 3 8 C6.3 8 9.6 8 13 8 C13 8.66 13 9.32 13 10 C9.7 10 6.4 10 3 10 C3 12.31 3 14.62 3 17 C6.63 17 10.26 17 14 17 C14 17.66 14 18.32 14 19 C9.38 19 4.76 19 0 19 C0 12.73 0 6.46 0 0 Z " fill="#666666" transform="translate(487,76)"/>
<path d="M0 0 C3.96 0 7.92 0 12 0 C12 0.99 12 1.98 12 3 C9.03 3 6.06 3 3 3 C3 4.65 3 6.3 3 8 C5.64 8 8.28 8 11 8 C11 8.99 11 9.98 11 11 C8.36 11 5.72 11 3 11 C3 13.64 3 16.28 3 19 C2.01 19 1.02 19 0 19 C0 12.73 0 6.46 0 0 Z " fill="#666666" transform="translate(637,76)"/>
<path d="M0 0 C3.88056075 1.46248114 5.04133478 3.31854481 6.8125 7 C7.25207031 7.886875 7.69164062 8.77375 8.14453125 9.6875 C8.56798828 10.8321875 8.56798828 10.8321875 9 12 C8.67 12.66 8.34 13.32 8 14 C3.38 14 -1.24 14 -6 14 C-6.33 13.01 -6.66 12.02 -7 11 C-5.56640625 8.30078125 -5.56640625 8.30078125 -3.5625 5.3125 C-2.57443359 3.82169922 -2.57443359 3.82169922 -1.56640625 2.30078125 C-1.04949219 1.54152344 -0.53257813 0.78226562 0 0 Z M1 2 C0.34 3.32 -0.32 4.64 -1 6 C0.32 6 1.64 6 3 6 C2.34 4.68 1.68 3.36 1 2 Z M0 7 C0 8.32 0 9.64 0 11 C0.99 10.67 1.98 10.34 3 10 C2.67 9.01 2.34 8.02 2 7 C1.34 7 0.68 7 0 7 Z " fill="#A1A6A9" transform="translate(34,92)"/>
<path d="M0 0 C4.29 0 8.58 0 13 0 C13 0.66 13 1.32 13 2 C9.37 2 5.74 2 2 2 C2 3.98 2 5.96 2 8 C5.3 8 8.6 8 12 8 C12 8.66 12 9.32 12 10 C8.7 10 5.4 10 2 10 C2 12.31 2 14.62 2 17 C5.63 17 9.26 17 13 17 C13 17.66 13 18.32 13 19 C8.71 19 4.42 19 0 19 C0 12.73 0 6.46 0 0 Z " fill="#666666" transform="translate(537,76)"/>
<path d="M0 0 C4.95 0 9.9 0 15 0 C15 0.99 15 1.98 15 3 C13.02 3 11.04 3 9 3 C9 8.28 9 13.56 9 19 C8.01 19 7.02 19 6 19 C6 13.72 6 8.44 6 3 C4.02 3 2.04 3 0 3 C0 2.01 0 1.02 0 0 Z " fill="#666666" transform="translate(857,76)"/>
<path d="M0 0 C4.95 0 9.9 0 15 0 C15 0.99 15 1.98 15 3 C13.02 3 11.04 3 9 3 C9 8.28 9 13.56 9 19 C8.01 19 7.02 19 6 19 C6 13.72 6 8.44 6 3 C4.02 3 2.04 3 0 3 C0 2.01 0 1.02 0 0 Z " fill="#666666" transform="translate(791,76)"/>
<path d="M0 0 C0.99 0 1.98 0 3 0 C7 5.25714286 7 5.25714286 7 8 C7.66 8 8.32 8 9 8 C9.28875 7.236875 9.5775 6.47375 9.875 5.6875 C11 3 11 3 13 0 C13.99 0 14.98 0 16 0 C14.89177136 3.04762875 13.63805896 5.59226716 11.9375 8.375 C9.83830103 11.92568971 9.33376514 14.91137702 9 19 C8.34 19 7.68 19 7 19 C6.87044922 18.14728516 6.87044922 18.14728516 6.73828125 17.27734375 C5.64416242 11.26470907 3.67619396 7.83709732 0 3 C0 2.01 0 1.02 0 0 Z " fill="#666666" transform="translate(733,76)"/>
<path d="M0 0 C4.95 0 9.9 0 15 0 C15 0.66 15 1.32 15 2 C13.02 2 11.04 2 9 2 C9 7.61 9 13.22 9 19 C8.01 19 7.02 19 6 19 C6 13.39 6 7.78 6 2 C4.02 2 2.04 2 0 2 C0 1.34 0 0.68 0 0 Z " fill="#666666" transform="translate(411,76)"/>
<path d="M0 0 C3.96 0 7.92 0 12 0 C12 0.66 12 1.32 12 2 C8.7 2 5.4 2 2 2 C2 3.98 2 5.96 2 8 C4.97 8 7.94 8 11 8 C11 8.66 11 9.32 11 10 C8.03 10 5.06 10 2 10 C2 12.97 2 15.94 2 19 C1.34 19 0.68 19 0 19 C0 12.73 0 6.46 0 0 Z " fill="#666666" transform="translate(336,76)"/>
<path d="M0 0 C0.99 0 1.98 0 3 0 C3 5.61 3 11.22 3 17 C5.97 17 8.94 17 12 17 C12 17.66 12 18.32 12 19 C8.04 19 4.08 19 0 19 C0 12.73 0 6.46 0 0 Z " fill="#666666" transform="translate(401,76)"/>
<path d="M0 0 C0.99 0 1.98 0 3 0 C3 6.27 3 12.54 3 19 C2.01 19 1.02 19 0 19 C0 12.73 0 6.46 0 0 Z " fill="#666666" transform="translate(873,76)"/>
<path d="M0 0 C0.99 0 1.98 0 3 0 C3 6.27 3 12.54 3 19 C2.01 19 1.02 19 0 19 C0 12.73 0 6.46 0 0 Z " fill="#666666" transform="translate(672,76)"/>
<path d="M0 0 C0.99 0 1.98 0 3 0 C3 6.27 3 12.54 3 19 C2.01 19 1.02 19 0 19 C0 12.73 0 6.46 0 0 Z " fill="#666666" transform="translate(589,76)"/>
<path d="M0 0 C1.32 0.33 2.64 0.66 4 1 C3.01 2.485 3.01 2.485 2 4 C1.6349209 6.22131423 1.6349209 6.22131423 1.5859375 8.66796875 C1.54726563 9.56064453 1.50859375 10.45332031 1.46875 11.37304688 C1.4378125 12.30181641 1.406875 13.23058594 1.375 14.1875 C1.33632813 15.12787109 1.29765625 16.06824219 1.2578125 17.03710938 C1.16356813 19.3578771 1.07795975 21.67863748 1 24 C0.34 24 -0.32 24 -1 24 C-1.22580354 20.56341292 -1.42762697 17.12582782 -1.625 13.6875 C-1.68945312 12.71103516 -1.75390625 11.73457031 -1.8203125 10.72851562 C-1.871875 9.79072266 -1.9234375 8.85292969 -1.9765625 7.88671875 C-2.02893066 7.02264404 -2.08129883 6.15856934 -2.13525391 5.26831055 C-2 3 -2 3 0 0 Z " fill="#666666" transform="translate(652,71)"/>
<path d="M0 0 C0.66 0 1.32 0 2 0 C2 6.27 2 12.54 2 19 C1.34 19 0.68 19 0 19 C0 12.73 0 6.46 0 0 Z " fill="#666666" transform="translate(531,76)"/>
<path d="M0 0 C1.4540625 0.0309375 1.4540625 0.0309375 2.9375 0.0625 C3.5975 1.7125 4.2575 3.3625 4.9375 5.0625 C2.19844655 6.43202673 -0.03337332 6.18871361 -3.0625 6.0625 C-3.7225 5.7325 -4.3825 5.4025 -5.0625 5.0625 C-3.9375 0.08035714 -3.9375 0.08035714 0 0 Z M-1.0625 1.0625 C-1.0625 2.3825 -1.0625 3.7025 -1.0625 5.0625 C-0.0725 4.7325 0.9175 4.4025 1.9375 4.0625 C1.6075 3.0725 1.2775 2.0825 0.9375 1.0625 C0.2775 1.0625 -0.3825 1.0625 -1.0625 1.0625 Z " fill="#636B70" transform="translate(35.0625,97.9375)"/>
<path d="M0 0 C3.21029714 1.10699901 4.00968977 2.01603825 5.8125 5 C6.204375 5.99 6.59625 6.98 7 8 C6.67 8.66 6.34 9.32 6 10 C4.35 7.69 2.7 5.38 1 3 C-0.65 4.65 -2.3 6.3 -4 8 C-2.87548273 5.0280615 -1.77706209 2.66559313 0 0 Z " fill="#999EA1" transform="translate(34,92)"/>
<path d="M0 0 C0.66 0 1.32 0 2 0 C2 0.66 2 1.32 2 2 C1.34 2 0.68 2 0 2 C0 1.34 0 0.68 0 0 Z " fill="#636B70" transform="translate(34,100)"/>
</svg>
